<svg width="277" height="202" viewBox="0 0 277 202" fill="none" xmlns="http://www.w3.org/2000/svg">
<path d="M65.786 10.7342L65.0109 11.9702L64.2788 10.9336C63.8912 10.3754 63.1592 9.93679 62.6855 9.93679C61.8673 9.93679 61.9104 10.0564 63.1161 11.4918C64.0635 12.5683 64.4511 13.4853 64.4511 14.4821C64.4511 15.6783 64.6233 15.9175 65.3554 15.9175C66.1735 15.9175 66.2166 15.758 66.0013 14.522C65.7429 13.4056 65.9152 12.8474 66.8195 11.6513C68.0682 9.93679 68.1544 9.53808 67.2501 9.53808C66.9056 9.53808 66.2166 10.0963 65.786 10.7342Z" fill="#544040"/>
<path d="M54.676 11.0532C54.2885 11.2525 54.3315 12.0898 54.8052 14.1233C55.1497 15.6384 55.4942 16.9541 55.6234 17.0339C55.7095 17.1136 56.5707 17.0737 57.5181 16.9142C58.6808 16.7548 59.2836 16.4358 59.2836 16.0371C59.2836 15.5985 58.9392 15.4789 57.9918 15.5985C56.5707 15.7978 56.4846 15.6384 56.054 12.967C55.7095 11.0133 55.4511 10.6146 54.676 11.0532Z" fill="#544040"/>
<path d="M70.9103 11.8507C70.9103 12.1696 71.6855 12.3291 72.8912 12.3291C76.6376 12.3291 84.0011 13.5651 88.5226 15.0005C109.709 21.5394 124.608 37.7271 128.441 58.3804C128.958 60.9721 129.087 63.8029 128.958 68.6274C128.829 75.1662 129.087 77.1598 129.647 73.4917C130.12 70.2222 129.905 62.0885 129.259 58.3804C128.269 52.5991 126.632 47.974 123.661 42.4319C115.436 27.0416 100.795 16.4757 82.5801 12.688C77.8433 11.731 70.9103 11.2127 70.9103 11.8507Z" fill="#544040"/>
<path d="M47.8722 12.7278C45.59 13.4455 44.5565 14.7612 46.5373 14.4423C47.4847 14.2429 47.6569 14.4423 48.3459 16.4757C49.0349 18.5091 49.6378 19.1072 50.3698 18.4693C50.499 18.3497 50.2406 17.2333 49.767 15.9973C49.2933 14.7612 49.078 13.6847 49.2502 13.605C50.3268 13.286 50.8435 12.7278 50.456 12.4088C50.1976 12.1696 49.2072 12.2892 47.8722 12.7278Z" fill="#544040"/>
<path d="M38.8293 16.3557C38.657 16.5551 38.657 18.1898 38.8293 19.9043C39.0446 22.3364 39.2599 22.9744 39.7336 22.8149C40.0781 22.6953 40.3364 22.2966 40.3364 21.858C40.3364 20.9011 41.8436 20.1834 43.1785 20.4625C45.2885 20.9808 45.0302 20.2232 42.4034 18.0702C39.5613 15.7975 39.2599 15.6779 38.8293 16.3557ZM41.1115 19.5853C40.1642 20.1036 39.9058 19.9441 39.9058 18.8278C39.9058 17.7911 39.9058 17.7911 40.767 18.5088C41.456 19.067 41.4991 19.3062 41.1115 19.5853Z" fill="#544040"/>
<path d="M31.5949 20.1438C31.4657 20.3033 31.7241 20.8615 32.1547 21.4197L33.0159 22.4165L32.1116 23.0146C31.2504 23.5728 31.0781 23.5728 30.3461 22.7355C29.8724 22.1773 29.3126 21.8982 28.882 22.0577C28.3222 22.257 28.4514 22.576 29.571 23.9715C32.1116 27.2808 32.3269 27.4802 32.9729 27.1213C33.4465 26.8422 33.4035 26.603 32.7576 25.6859C32.0255 24.6094 32.0255 24.5696 32.8437 24.0114C33.5757 23.493 33.748 23.5728 34.5231 24.4499C35.169 25.1676 35.5566 25.367 36.0303 25.0879C36.547 24.8088 36.3748 24.3303 34.9107 22.4165C33.2312 20.2236 32.2408 19.5458 31.5949 20.1438Z" fill="#544040"/>
<path d="M63.8051 22.536C63.3315 22.6157 61.8673 22.8948 60.5755 23.134C51.2311 24.7688 42.9632 28.9553 35.7719 35.6138C30.303 40.7173 27.0734 45.462 24.4897 52.2002C20.2696 63.3243 21.1739 76.6812 26.9011 87.0876C31.2504 95.0618 39.7336 102.916 48.3029 106.904C58.9391 111.888 71.9438 112.924 83.6136 109.814C94.5082 106.904 104.111 100.285 110.527 91.2741C118.451 80.0702 120.431 65.3976 115.738 52.5192C110.14 37.1687 95.5848 25.6858 78.317 22.8948C75.0443 22.3765 66.0013 22.1373 63.8051 22.536ZM55.4081 45.8607C59.3698 46.8973 63.2884 49.17 66.8625 52.3996L69.8769 55.1906L72.4606 52.7584C76.8529 48.5321 82.3217 45.9005 88.5226 44.9835C92.8288 44.3854 93.2164 44.6645 93.3886 48.2928L93.5178 51.1237L95.6709 51.6819C96.8766 52.0009 97.9532 52.4793 98.1254 52.7584C98.6422 53.4761 98.556 86.0111 98.0393 86.2902C97.7809 86.4496 96.2738 86.2503 94.6805 85.8516C90.159 84.775 83.3121 84.9744 78.4462 86.2902C76.3361 86.8484 73.7524 87.7654 72.762 88.3236C70.6089 89.4799 69.1017 89.5197 67.2931 88.5229C65.0539 87.2072 59.6712 85.732 55.6234 85.2934C52.4799 84.9744 50.9727 85.0143 47.6569 85.5326C45.4177 85.8516 43.1785 86.1705 42.7048 86.2104C41.8436 86.2902 41.8436 85.9712 41.6283 69.7436C41.3699 51.2433 41.1977 52.4793 44.5565 51.6021L46.1498 51.1636L46.4081 48.253C46.5373 46.4587 46.8818 45.2227 47.2263 45.0234C48.0445 44.5449 52.0923 44.9835 55.4081 45.8607Z" fill="#544040"/>
<path d="M44.7718 53.8751L43.7814 54.3136V69.0261V83.7386L45.8483 83.4197C51.1019 82.5824 59.8865 83.2203 64.2357 84.6956C66.4319 85.4531 61.6951 82.3431 58.2071 80.7483C55.365 79.4325 53.4272 78.8345 50.8866 78.5155C48.9919 78.2364 47.1833 77.8377 46.9249 77.6383C46.4943 77.3194 46.3651 74.3689 46.3651 65.3181C46.3651 58.7394 46.2359 53.3966 46.0636 53.4365C45.8483 53.4365 45.2885 53.6358 44.7718 53.8751Z" fill="#544040"/>
<path d="M93.3025 64.9589C93.3025 71.2984 93.1733 76.7209 93.0441 77.0797C92.8719 77.4784 92.269 77.7177 91.2786 77.7177C88.5657 77.7177 83.6566 78.9935 80.8145 80.389C78.2739 81.6649 73.7093 84.8147 74.0108 85.0938C74.0969 85.1736 75.7763 84.7749 77.8002 84.2167C80.7284 83.4192 82.4509 83.18 86.4126 83.1402C89.1255 83.1402 92.4843 83.2598 93.8623 83.4192L96.3168 83.7382V68.9859C96.3168 60.8521 96.2737 54.1936 96.1876 54.1936C96.1446 54.1936 95.4556 54.0341 94.6805 53.8348L93.3025 53.4361V64.9589Z" fill="#544040"/>
<path d="M24.4897 25.6062C24.1882 25.9252 24.1021 26.7625 24.2744 27.7194L24.5327 29.2744L23.4562 28.3573C22.5519 27.5998 22.2935 27.5599 21.906 27.9985C21.217 28.756 25.8677 33.0621 26.6428 32.3445C27.0303 31.9856 26.9011 31.6666 26.126 30.8692L25.0925 29.8724L27.0303 30.1117C28.4514 30.311 29.0973 30.1914 29.4848 29.7528C29.9155 29.2744 29.7002 29.1548 27.8485 28.9155C25.7815 28.6763 25.6954 28.5966 25.6954 27.3606C25.6954 25.6461 25.1356 24.8487 24.4897 25.6062Z" fill="#544040"/>
<path d="M20.7433 35.2947C16.7385 40.4779 13.1644 48.0535 11.3558 55.1904C10.5807 58.1808 10.4515 60.0946 10.4515 66.7531C10.4085 75.2856 10.6238 76.6811 12.863 83.499C18.5471 100.803 33.8341 114.798 52.9105 120.141C57.3028 121.377 63.719 122.374 67.3793 122.374C71.6424 122.374 70.1352 121.736 65.2262 121.456C60.231 121.138 55.1928 120.141 49.8531 118.347C30.0877 111.808 15.3606 95.5402 11.7434 76.2425C10.9683 72.1357 10.8391 63.0451 11.5281 58.8586C12.7338 51.3628 17.1692 41.076 21.5615 35.5738C22.638 34.2181 23.327 32.9821 23.1548 32.8625C22.9394 32.7429 21.8629 33.8593 20.7433 35.2947Z" fill="#544040"/>
<path d="M124.781 78.954C124.479 79.8711 124.307 80.6286 124.393 80.6685C125.082 81.1469 130.465 82.1437 130.766 81.8646C131.369 81.3064 131.498 78.8344 130.895 78.6351C130.637 78.5553 130.336 78.8743 130.25 79.3926C130.163 79.9109 129.776 80.3495 129.345 80.4293C128.656 80.5489 128.57 80.3894 128.829 79.3527C129.044 78.3958 128.958 78.1167 128.484 78.1167C128.14 78.1167 127.709 78.5553 127.58 79.1135C127.192 80.5887 125.9 79.9907 126.245 78.4756C126.675 76.6016 125.384 77.0402 124.781 78.954Z" fill="#544040"/>
<path d="M122.886 84.7751C122.541 85.1739 122.111 85.9713 121.939 86.5295C121.68 87.4864 121.852 87.6459 124.436 88.6825C127.02 89.6793 128.183 89.759 128.183 88.9218C128.183 88.7623 127.752 88.4034 127.235 88.2041C126.245 87.7655 126.288 87.7655 127.537 87.4864C128.785 87.1674 129.474 86.6491 129.474 85.9713C129.474 85.6922 128.613 85.8118 127.02 86.37C126.718 86.4896 126.46 86.3301 126.46 86.0111C126.46 85.2536 125.082 84.0973 124.221 84.0973C123.876 84.0973 123.274 84.4163 122.886 84.7751ZM125.082 86.4497C125.211 87.2472 125.082 87.3269 124.221 87.0877C122.886 86.689 122.8 86.6092 123.446 85.8915C124.178 85.0542 124.91 85.3333 125.082 86.4497Z" fill="#544040"/>
<path d="M119.742 91.6729C118.537 92.1115 117.417 93.5867 117.417 94.7031C117.417 95.1815 117.805 96.0188 118.321 96.6169C120.13 98.77 124.307 97.5738 124.307 94.9024C124.307 93.188 123.919 92.5102 122.541 91.8722C121.163 91.1944 120.991 91.1944 119.742 91.6729ZM122.585 93.6664C123.23 94.8227 122.714 96.0188 121.465 96.2979C120.173 96.6169 119.14 95.8594 119.14 94.7031C119.14 92.869 121.68 92.1513 122.585 93.6664Z" fill="#544040"/>
<path d="M112.982 99.408C112.121 100.405 111.388 101.402 111.388 101.601C111.388 102.239 112.293 102.119 112.853 101.441C113.24 100.923 113.628 101.083 115.393 102.478C117.03 103.794 117.589 104.033 117.977 103.674C118.364 103.276 118.02 102.837 116.47 101.601C114.704 100.205 114.489 99.8865 114.963 99.2485C115.307 98.7302 115.307 98.3315 115.006 98.0524C114.704 97.7733 114.058 98.2119 112.982 99.408Z" fill="#544040"/>
<path d="M107.384 104.83C105.833 105.987 105.747 107.901 107.255 108.259C107.857 108.379 108.848 108.22 109.623 107.821C110.872 107.263 111.001 107.263 111.259 107.821C111.604 108.658 111.044 109.137 109.451 109.296C108.116 109.416 107.814 110.133 109.02 110.333C111.302 110.771 113.369 108.738 112.637 106.864C112.207 105.907 112.034 105.907 108.719 106.665C107.771 106.864 107.513 106.784 107.513 106.266C107.513 105.668 107.728 105.548 109.235 105.468C110.097 105.429 110.054 104.272 109.192 104.113C108.848 104.073 108.03 104.392 107.384 104.83Z" fill="#544040"/>
<path d="M101.743 109.057C101.355 109.376 101.054 110.332 101.054 111.13L101.011 112.605L100.279 111.489C99.5034 110.332 99.1158 110.173 98.6852 110.811C98.3407 111.329 101.484 115.994 102.173 115.994C103.121 115.994 103.164 115.476 102.302 114.359C101.269 113.004 101.312 113.004 103.336 113.801C104.8 114.359 106.221 114.28 106.221 113.602C106.221 113.403 105.403 113.004 104.412 112.725L102.604 112.166L102.733 110.293C102.862 108.259 102.733 108.1 101.743 109.057Z" fill="#544040"/>
<path d="M91.1494 114.399C89.9867 115.476 89.9867 117.988 91.1494 118.984C93.0011 120.539 96.3168 119.583 96.9197 117.35C97.2211 116.233 96.2307 114.2 95.2403 113.841C93.8623 113.363 92.0106 113.602 91.1494 114.399ZM94.9388 115.276C96.1446 116.393 95.2403 118.386 93.5178 118.386C92.3551 118.386 91.58 117.669 91.58 116.592C91.58 115.516 92.3551 114.798 93.5178 114.798C94.0345 114.798 94.6374 114.997 94.9388 115.276Z" fill="#544040"/>
<path d="M82.1925 116.792C81.6327 116.991 80.9438 117.748 80.6423 118.466C79.3505 121.257 82.1495 123.649 85.3361 122.533C86.3265 122.174 87.3169 120.141 87.0155 119.024C86.5418 117.15 84.1734 116.074 82.1925 116.792ZM85.1208 118.546C86.4557 120.061 84.7332 122.094 82.7954 121.257C80.8576 120.46 81.5036 117.988 83.6567 117.988C84.1734 117.988 84.8193 118.267 85.1208 118.546Z" fill="#544040"/>
<path d="M72.4175 118.227C71.9869 118.387 72.0299 121.616 72.4605 123.45C72.8481 125.205 76.939 124.407 76.939 122.613C76.939 122.095 76.6806 121.457 76.3361 121.217C75.9916 120.938 75.8194 120.38 75.9485 119.981C76.3792 118.506 74.3122 117.47 72.4175 118.227ZM74.6998 119.862C74.4844 120.859 73.494 120.978 73.494 120.021C73.494 119.543 73.7524 119.184 74.183 119.184C74.5706 119.184 74.7859 119.463 74.6998 119.862ZM75.4318 122.374C75.4318 122.693 75.0873 123.012 74.6998 123.091C74.1399 123.171 73.9246 122.972 73.9246 122.374C73.9246 121.776 74.1399 121.576 74.6998 121.656C75.0873 121.736 75.4318 122.055 75.4318 122.374Z" fill="#544040"/>
</svg>
